<?xml version="1.0" standalone="no"?><!DOCTYPE svg PUBLIC "-//W3C//DTD SVG 1.1//EN" "http://www.w3.org/Graphics/SVG/1.1/DTD/svg11.dtd"><svg t="1546862009560" class="icon" style="" viewBox="0 0 1024 1024" version="1.1" xmlns="http://www.w3.org/2000/svg" p-id="7299" xmlns:xlink="http://www.w3.org/1999/xlink" width="200" height="200"><defs><style type="text/css"></style></defs><path d="M536.36 72.13h57.52v91.3c108.44 0.61 217-1.12 325.33 0.51 23.33-2.23 41.6 15.93 39.26 39.26 1.72 189.5-0.41 379.11 1 568.72-1 20.49 2 43.21-9.74 61.37-14.81 10.75-34.08 9.33-51.43 10.14-101.45-0.51-202.89-0.31-304.44-0.31v101.45h-63.08c-154.6-28.21-309.51-54-464.22-81.16q-0.15-355 0-709.92c156.54-27.09 313.07-54.68 469.8-81.36z" fill="#477DA7" p-id="7300"></path><path d="M217 547.44h-25.18l-10-28.17h-45.9l-9.47 28.17h-24.58l44.7-124h24.5z m-42.67-49l-15.82-46-15.5 46zM246.71 547.44l-41-124h25.13l29 91.77L288 423.45h24.58l-41.1 124zM323.67 547.44v-124h23.17v124z" fill="#FFFFFF" p-id="7301"></path><path d="M807.375 501.365l9.259-32.205 32.205 9.259-9.259 32.205zM770.368 630.185l9.26-32.206 32.205 9.26-9.26 32.205zM620.12 587.01l9.25-32.2-32.2-9.26-6.67 23.2v9.75l29.62 8.51zM788.9 565.818l9.26-32.205 32.205 9.259-9.26 32.205z" fill="#FFFFFF" p-id="7302"></path><path d="M590.5 193.86v294.06L620 385.47c2.87-10 18.13-14 26.6-11.66l-4.63 16.1 32.2 9.26 4.63-16.1L829 426.28l-4.63 16.1 32.2 9.26 4.63-16.1c8.42 2.52 19.21 14 16.34 24L815.3 676.12c-2.88 10-18.13 14-26.6 11.66l4.63-16.1-32.2-9.26-4.63 16.1-150.27-43.21 4.63-16.1-20.35-5.85v199.33h334.77V193.86z" fill="#FFFFFF" p-id="7303"></path><path d="M606.405 513.31l9.259-32.206 32.205 9.259-9.259 32.205zM767.23 546.44l-72.88-76.13-29.31 101.92 102.19-25.79zM624.95 448.943l9.259-32.205 32.205 9.259-9.259 32.205z" fill="#FFFFFF" p-id="7304"></path></svg>