<?xml version="1.0" standalone="no"?><!DOCTYPE svg PUBLIC "-//W3C//DTD SVG 1.1//EN" "http://www.w3.org/Graphics/SVG/1.1/DTD/svg11.dtd"><svg t="1546862097147" class="icon" style="" viewBox="0 0 1024 1024" version="1.1" xmlns="http://www.w3.org/2000/svg" p-id="8839" xmlns:xlink="http://www.w3.org/1999/xlink" width="200" height="200"><defs><style type="text/css"></style></defs><path d="M535.16 75.38h57.65v91.52c108.69 0.61 217.5-1.12 326.09 0.51 23.39-2.23 41.7 16 39.35 39.35 1.73 189.95-0.41 380 1 570-1 20.53 2 43.31-9.76 61.52-14.85 10.77-34.16 9.35-51.55 10.17-101.68-0.51-203.37-0.31-305.15-0.31v101.71h-63.23c-155-28.27-310.23-54.1-465.3-81.35q-0.15-355.84 0-711.58c156.9-27.14 313.79-54.8 470.9-81.54z" fill="#0071C5" p-id="8840"></path><path d="M111.26 435.08h42.46q14.36 0 21.9 2.37A38.11 38.11 0 0 1 193 448.89a55.17 55.17 0 0 1 11 20.14q3.77 11.92 3.77 29.37 0 15.34-3.54 26.45-4.32 13.55-12.32 21.95-6 6.36-16.32 9.92-7.7 2.64-20.57 2.63h-43.76z m23.24 21v82.31h17.34q9.73 0 14.05-1.18a20.94 20.94 0 0 0 9.37-5.17q3.72-3.65 6.08-12t2.36-22.76q0-14.4-2.36-22.12t-6.58-12a21.6 21.6 0 0 0-10.76-5.88q-4.87-1.18-19.07-1.18zM228 559.35V436.09h23.24v102.32H309v20.94zM326.2 559.35V436.09h23.23v102.32h57.76v20.94zM722.67 577.25a12.93 12.93 0 1 0 12.9 12.93 12.9 12.9 0 0 0-12.9-12.93zM729.11 473.83H716.2a6.45 6.45 0 0 0-6.46 6.46v64.64a6.47 6.47 0 0 0 6.46 6.46h12.9a6.45 6.45 0 0 0 6.46-6.46V480.3a6.47 6.47 0 0 0-6.45-6.47z" fill="#FFFFFF" p-id="8841"></path><path d="M589.42 205v333.45a132.51 132.51 0 0 1 39.06-94.31A10.31 10.31 0 0 1 643 458.72a112.83 112.83 0 0 0 0 159.49 10.3 10.3 0 1 1-14.54 14.58 132.6 132.6 0 0 1-39.06-94.35v286.78H925V205z m133.39 436.89a103.42 103.42 0 1 1 103.42-103.42 103.43 103.43 0 0 1-103.42 103.42z m94.3-9.1a10.3 10.3 0 0 1-14.55 0 10.3 10.3 0 0 1 0-14.6 112.75 112.75 0 0 0 0-159.46 10.3 10.3 0 0 1 14.57-14.57 133.38 133.38 0 0 1 0 188.63z" fill="#FFFFFF" p-id="8842"></path></svg>