<?xml version="1.0" standalone="no"?><!DOCTYPE svg PUBLIC "-//W3C//DTD SVG 1.1//EN" "http://www.w3.org/Graphics/SVG/1.1/DTD/svg11.dtd"><svg t="1546862122356" class="icon" style="" viewBox="0 0 1024 1024" version="1.1" xmlns="http://www.w3.org/2000/svg" p-id="9308" xmlns:xlink="http://www.w3.org/1999/xlink" width="200" height="200"><defs><style type="text/css"></style></defs><path d="M959.16 187.68c2.14-23.23-16.1-41.26-39.32-38.92-108.92-1.76-217.84 0-326.84-0.61V66.64h-60.95C375.86 94.45 219.57 121 63.38 148.35v713c155.38 27.2 310.85 53.18 465.93 81.51H593v-81.51c102 0 203.87-0.2 305.86 0.31 17.32-0.82 36.58 0.51 51.45-10.09 11.92-18.24 8.87-41.06 9.89-61.64-1.45-200.72 0.69-401.53-1.04-602.25z" fill="#2A5699" p-id="9309"></path><path d="M593 178.71h336.21v652.08H593v-81.51h264.9v-40.76H593v-50.94h264.9v-40.76H593v-50.94h264.9v-40.75H593v-50.95h264.9v-40.75H593v-50.94h264.9v-40.76H593v-50.94h264.9V250H593zM115.57 419.49h42.54q14.39 0 21.94 2.38a38.18 38.18 0 0 1 17.38 11.46 55.43 55.43 0 0 1 11 20.18q3.78 11.94 3.78 29.43 0 15.37-3.54 26.51-4.33 13.58-12.35 22-6.05 6.37-16.35 9.94-7.71 2.64-20.6 2.64h-43.8z m23.28 21.06V523h17.38q9.75 0 14.07-1.18a21 21 0 0 0 9.39-5.18q3.74-3.66 6.09-12t2.36-22.81q0-14.43-2.36-22.17t-6.6-12.06a21.6 21.6 0 0 0-10.78-5.87q-4.87-1.18-19.1-1.18zM227.23 482.51q0-19 5.27-31.94a59.12 59.12 0 0 1 10.73-17.07 45.09 45.09 0 0 1 14.9-11.21q10.78-4.93 24.85-4.93 25.48 0 40.77 17.07T339 481.92q0 30.15-15.17 47.18t-40.58 17q-25.72 0-40.89-16.94t-15.13-46.65z m24-0.85q0 21.15 9 32.06a29.54 29.54 0 0 0 45.8 0.09Q315 503 315 481.32q0-21.4-8.69-31.94t-23.08-10.54q-14.39 0-23.19 10.67t-8.83 32.15zM351.31 503.49l22.69-2.38q2 12.31 8.29 18.09t16.82 5.8q11.25 0 16.94-5.14t5.7-12a11.94 11.94 0 0 0-2.4-7.51q-2.4-3.1-8.37-5.39-4.09-1.54-18.64-5.44-18.72-5-26.26-12.32a33.55 33.55 0 0 1-10.62-25.05 33.91 33.91 0 0 1 5-17.8 31.92 31.92 0 0 1 14.39-12.61q9.4-4.34 22.69-4.34 21.7 0 32.67 10.28t11.52 27.44l-23.28 1.1q-1.49-9.6-6.41-13.8t-14.74-4.21q-10.15 0-15.88 4.5a9.33 9.33 0 0 0-3.7 7.73 9.85 9.85 0 0 0 3.46 7.56q4.4 4 21.39 8.33t25.12 9a33.6 33.6 0 0 1 12.74 12.66q4.6 8 4.6 19.84a38.79 38.79 0 0 1-5.51 20A33.64 33.64 0 0 1 424 541.67q-10.07 4.55-25.08 4.55-21.86 0-33.58-10.91t-14.03-31.82z" fill="#FFFFFF" p-id="9310"></path></svg>