<?xml version="1.0" standalone="no"?><!DOCTYPE svg PUBLIC "-//W3C//DTD SVG 1.1//EN" "http://www.w3.org/Graphics/SVG/1.1/DTD/svg11.dtd"><svg t="1546862070183" class="icon" style="" viewBox="0 0 1024 1024" version="1.1" xmlns="http://www.w3.org/2000/svg" p-id="8364" xmlns:xlink="http://www.w3.org/1999/xlink" width="200" height="200"><defs><style type="text/css"></style></defs><path d="M534.29 76.75h57.54v91.34c108.49 0.61 217.08-1.12 325.47 0.51 23.34-2.23 41.62 15.94 39.28 39.28 1.72 189.59-0.41 379.27 1 569-1 20.5 2 43.23-9.74 61.4-14.84 10.72-34.08 9.29-51.44 10.11-101.49-0.51-203-0.31-304.57-0.31v101.49H528.7c-154.66-28.22-309.64-54-464.42-81.19q-0.15-355.17 0-710.23c156.61-27.1 313.2-54.71 470.01-81.4z" fill="#477DA7" p-id="8365"></path><path d="M111.28 552.27v-124h85.14v21h-62v27.5h57.68v20.89h-57.64v33.76h64.14v20.9zM206.59 552.27l39.25-64.73-35.56-59.31h27.1l23 39.85L283 428.23h26.86l-35.72 60.24 39.25 63.8h-28l-25.45-42.9-25.53 42.9zM325.26 552.27v-124h85.14v21h-62v27.5h57.64v20.89h-57.6v33.76h64.15v20.9z" fill="#FFFFFF" p-id="8366"></path><path d="M780.67 636.78m-15.75 0a15.75 15.75 0 1 0 31.5 0 15.75 15.75 0 1 0-31.5 0Z" fill="#FFFFFF" p-id="8367"></path><path d="M697.08 492.73m-33.31 0a33.31 33.31 0 1 0 66.62 0 33.31 33.31 0 1 0-66.62 0Z" fill="#FFFFFF" p-id="8368"></path><path d="M588.45 198.54v272h11.45a99.81 99.81 0 0 1 12.89-30.65L595 422a11.1 11.1 0 0 1 0-15.69l15.7-15.7a11.09 11.09 0 0 1 15.69 0l17.72 17.72a98.75 98.75 0 0 1 30.75-13v-24.76a11.11 11.11 0 0 1 11.14-11.1h22.21a11.11 11.11 0 0 1 11.1 11.11v24.79a98.76 98.76 0 0 1 30.75 13l17.72-17.72a11.1 11.1 0 0 1 15.69 0l15.7 15.7a11.09 11.09 0 0 1 0 15.69l-17.81 17.81a100.08 100.08 0 0 1 12.89 30.65h25a11.11 11.11 0 0 1 11.1 11.11v22.21a11.1 11.1 0 0 1-11.1 11.1h-25a99.83 99.83 0 0 1-12.89 30.65l17.81 17.81a11.09 11.09 0 0 1 0 15.69l-8 8v3.63a46.66 46.66 0 0 1 14.54 6.16l8.38-8.38a5.25 5.25 0 0 1 7.42 0l7.42 7.42a5.25 5.25 0 0 1 0 7.42l-8.42 8.42a47.32 47.32 0 0 1 6.1 14.49h11.82a5.25 5.25 0 0 1 5.25 5.25V642a5.25 5.25 0 0 1-5.25 5.25h-11.82a47.2 47.2 0 0 1-6.09 14.49l8.42 8.42a5.24 5.24 0 0 1 0 7.42l-7.43 7.42a5.25 5.25 0 0 1-7.42 0l-8.38-8.38a46.55 46.55 0 0 1-14.54 6.16v11.71a5.25 5.25 0 0 1-5.25 5.25h-10.5a5.25 5.25 0 0 1-5.25-5.25v-11.67a46.55 46.55 0 0 1-14.54-6.16l-8.37 8.34a5.25 5.25 0 0 1-7.42 0l-7.42-7.42a5.24 5.24 0 0 1 0-7.42l8.42-8.42a47.33 47.33 0 0 1-6.09-14.49h-11.84a5.25 5.25 0 0 1-5.24-5.25v-10.5a5.25 5.25 0 0 1 5.25-5.25h11.81a47.17 47.17 0 0 1 6.1-14.49l-8.42-8.42a5.24 5.24 0 0 1 0-7.42l7.42-7.42a5.25 5.25 0 0 1 7.42 0l8.38 8.38a46.61 46.61 0 0 1 9.67-4.57L750 577.09a98.54 98.54 0 0 1-30.75 13v24.76A11.11 11.11 0 0 1 708.19 626H686a11.11 11.11 0 0 1-11.1-11.11v-24.78a98.47 98.47 0 0 1-30.75-13L626.4 594.8a11.1 11.1 0 0 1-15.69 0L595 579.1a11.09 11.09 0 0 1 0-15.69l17.81-17.81a100.13 100.13 0 0 1-12.89-30.65h-11.47v302.68h334.92V198.54z" fill="#FFFFFF" p-id="8369"></path><path d="M697.08 570.46a77.73 77.73 0 1 0-77.73-77.74 77.73 77.73 0 0 0 77.73 77.74z m0-133.26a55.52 55.52 0 1 1-55.52 55.52 55.51 55.51 0 0 1 55.52-55.52zM743.92 636.78A36.75 36.75 0 1 0 780.67 600a36.75 36.75 0 0 0-36.75 36.78z m63 0a26.25 26.25 0 1 1-26.25-26.25 26.24 26.24 0 0 1 26.24 26.25z" fill="#FFFFFF" p-id="8370"></path></svg>