<?xml version="1.0" standalone="no"?><!DOCTYPE svg PUBLIC "-//W3C//DTD SVG 1.1//EN" "http://www.w3.org/Graphics/SVG/1.1/DTD/svg11.dtd"><svg t="1546861991423" class="icon" style="" viewBox="0 0 1024 1024" version="1.1" xmlns="http://www.w3.org/2000/svg" p-id="7056" xmlns:xlink="http://www.w3.org/1999/xlink" width="200" height="200"><defs><style type="text/css"></style></defs><path d="M903.19 82.78H120.67A49.65 49.65 0 0 0 71 132.41v358.86h881.84V132.43a49.65 49.65 0 0 0-49.65-49.65z" fill="#F6CC5E" p-id="7057"></path><path d="M835.94 183.07H525.33v543.47h310.61A54.54 54.54 0 0 0 890.48 672V237.61a54.54 54.54 0 0 0-54.54-54.54z" fill="#FEECC4" p-id="7058"></path><path d="M207.62 183.07a54.54 54.54 0 0 0-54.54 54.54V672a54.54 54.54 0 0 0 54.54 54.54h317.71V183.07z" fill="#FAE5AB" p-id="7059"></path><path d="M71.24 894.81a49.64 49.64 0 0 0 49.64 49.64H903.2a49.64 49.64 0 0 0 49.64-49.64V491.27H71.24z" fill="#FFB233" p-id="7060"></path><path d="M470.53 638.83l24.75 0 0 109.04-24.75 0 0-109.04Z" fill="#F1F5E7" p-id="7061"></path><path d="M518.94 608.02m-64.07 0a64.07 64.07 0 1 0 128.14 0 64.07 64.07 0 1 0-128.14 0Z" fill="#F1F5E7" p-id="7062"></path><path d="M516.92 576.89A31.2 31.2 0 1 1 487.81 606a31.2 31.2 0 0 1 29.11-29.11z" fill="#8C0B0A" p-id="7063"></path><path d="M519 643.53A35.5 35.5 0 1 1 554.46 608 35.55 35.55 0 0 1 519 643.53z m0-62.41A26.9 26.9 0 1 0 545.9 608a26.9 26.9 0 0 0-26.9-26.9z" fill="#FFFFFF" p-id="7064"></path></svg>