<?xml version="1.0" standalone="no"?><!DOCTYPE svg PUBLIC "-//W3C//DTD SVG 1.1//EN" "http://www.w3.org/Graphics/SVG/1.1/DTD/svg11.dtd"><svg t="1546862114978" class="icon" style="" viewBox="0 0 1048 1024" version="1.1" xmlns="http://www.w3.org/2000/svg" p-id="9191" xmlns:xlink="http://www.w3.org/1999/xlink" width="204.6875" height="200"><defs><style type="text/css"></style></defs><path d="M551.510689 0h67.548646v107.117869c127.253687 0.702412 254.741511-1.287756 381.878129 0.585344 27.394078-2.575512 48.817652 18.730993 46.125072 46.125071 1.990168 222.430548-0.468275 444.978164 1.170687 667.52578-1.170687 23.999085 2.341374 50.690751-11.472734 71.997256-17.326169 12.643421-40.037499 11.004459-60.407454 11.941009-119.058877-0.585344-238.117755-0.351206-357.2937-0.351206v119.058877h-74.104493c-181.456499-33.130445-363.264205-63.334172-544.837773-95.293929C0 650.902024 0 373.215045 0.117069 95.528067 183.797874 63.685378 367.595747 31.257345 551.510689 0z" fill="#077467" p-id="9192"></path><path d="M615.078999 142.823825v515.102321l8.897221-4.448611 16.38962-7.492397 16.389619-19.316337h32.779239l53.617468-64.036584 93.772037 101.264433h34.184063l72.933806 56.544187-77.382417-32.779239h-28.330628l-86.279639-53.5004-46.125071 55.022293-22.360124-26.808734-68.485194-4.448611v211.426089H1007.961587V142.823825H615.078999z m264.926489 287.286613c-29.618383 0-53.617469-23.999085-53.617469-53.617469s23.999085-53.617469 53.617469-53.617469c29.618383 0 53.617469 23.999085 53.617468 53.617469v0.117069c-0.117069 29.618383-23.999085 53.617469-53.617468 53.5004z" fill="#FFFFFF" p-id="9193"></path><path d="M109.225106 414.189093h29.852521V508.078198c0 12.292214-1.053618 21.657711-3.277924 28.330628-2.926718 8.663084-8.19481 15.570138-15.804276 20.83823s-17.677375 7.843604-30.086658 7.843604c-14.633589 0-25.872185-4.097405-33.832857-12.292215-7.843604-8.19481-11.82394-20.252887-11.941009-36.057162l28.213559-3.277924c0.351206 8.546016 1.638962 14.51652 3.746199 18.028581 3.277924 5.385161 8.19481 7.960672 14.750657 7.960672 6.672916 0 11.355665-1.873099 14.165314-5.736366 2.809649-3.863267 4.097405-11.706871 4.097405-23.764948v-95.762205zM170.920316 562.398079V414.189093h47.99817c18.262719 0 30.086658 0.702412 35.588888 2.224306 8.546016 2.224305 15.570138 7.024123 21.306505 14.51652 5.736367 7.492397 8.546016 17.092032 8.546016 28.915971 0 9.131359-1.638962 16.740825-4.916886 22.945467-3.277924 6.204642-7.492397 11.121527-12.643421 14.633589-5.033954 3.512061-10.302046 5.853435-15.570138 7.024122-7.141191 1.404825-17.443238 2.107237-31.023208 2.107237h-19.550474v55.958843H170.920316z m29.85252-123.156282v42.027667h16.38962c11.82394 0 19.667543-0.819481 23.647879-2.341374 3.980336-1.521893 7.141191-3.980336 9.365497-7.25826 2.224305-3.277924 3.394993-7.141191 3.394992-11.472734 0-5.385161-1.638962-9.833772-4.799817-13.345833-3.160855-3.512061-7.141191-5.736367-12.058077-6.555847-3.62913-0.702412-10.770321-1.053618-21.540642-1.053619h-14.399452zM378.014862 507.96113v-24.935636H442.519721V542.028124c-6.32171 6.087573-15.336001 11.355665-27.277009 16.038413-11.941008 4.56568-23.999085 6.907054-36.174231 6.907054-15.570138 0-29.03304-3.277924-40.505774-9.716703-11.472734-6.555848-20.252887-15.804276-25.989253-27.862353-5.853435-12.058077-8.663084-25.286841-8.663085-39.452155 0-15.45307 3.277924-29.150109 9.716703-41.208185 6.438779-12.058077 15.921344-21.189436 28.447696-27.628216 9.482565-4.916886 21.306505-7.375329 35.471819-7.375328 18.379787 0 32.779239 3.863267 43.081285 11.589802 10.302046 7.726535 16.974963 18.379787 20.01875 31.959757l-29.735452 5.619298c-2.107237-7.25826-5.970504-12.994627-11.82394-17.2091s-12.994627-6.32171-21.540643-6.32171c-13.111695 0-23.530811 4.097405-31.257345 12.409283-7.726535 8.311878-11.589802 20.604093-11.589802 36.876643 0 17.560306 3.863267 30.789071 11.706871 39.569224 7.843604 8.780153 18.028581 13.228764 30.78907 13.228764 6.32171 0 12.526352-1.287756 18.848062-3.746198 6.32171-2.458443 11.706871-5.502229 16.272551-8.897222v-18.848062h-34.301132z" fill="#FFFFFF" p-id="9194"></path></svg>