<?xml version="1.0" standalone="no"?><!DOCTYPE svg PUBLIC "-//W3C//DTD SVG 1.1//EN" "http://www.w3.org/Graphics/SVG/1.1/DTD/svg11.dtd"><svg t="1546862050082" class="icon" style="" viewBox="0 0 1024 1024" version="1.1" xmlns="http://www.w3.org/2000/svg" p-id="8007" xmlns:xlink="http://www.w3.org/1999/xlink" width="200" height="200"><defs><style type="text/css"></style></defs><path d="M535.3 76.86h57.37v91.07c108.16 0.61 216.43-1.12 324.49 0.5 23.27-2.22 41.49 15.89 39.16 39.16 1.72 189-0.41 378.13 1 567.25-1 20.43 2 43.1-9.71 61.21-14.77 10.72-34 9.31-51.29 10.12-101.18-0.5-202.37-0.31-303.65-0.31V947h-62.94c-154.2-28.13-308.71-53.83-463-80.95Q66.57 512 66.71 158C222.85 131 379 103.47 535.3 76.86z" fill="#477DA7" p-id="8008"></path><path d="M113.26 550.95V427.27h34.59l20.77 84.36 20.53-84.36h34.67v123.68h-21.46V453.6l-22.73 97.35h-22.25l-22.65-97.35v97.35zM247.1 550.95V427.27h23.11v54.92l46.7-54.92H348l-43.1 48.17 45.44 75.5h-29.92L289 492.9l-18.74 20.67v37.37zM391.48 550.95l-40.92-123.68h25.07l29 91.54 28-91.54h24.52l-41 123.67z" fill="#FFFFFF" p-id="8009"></path><path d="M808.091 507.612l9.358-32.084 32.083 9.358-9.358 32.083zM768.703 633.478l9.235-32.12 32.119 9.235-9.235 32.119zM618.84 590.41l9.23-32.12-32.11-9.23-6.66 23.14v9.72l29.54 8.49zM787.188 569.277l9.234-32.12 32.119 9.235-9.234 32.119z" fill="#FFFFFF" p-id="8010"></path><path d="M589.3 198.28v293.3l29.38-102.18c2.87-10 18.08-14 26.53-11.63l-4.62 16.06 32.12 9.24 4.62-16.07 149.89 43.1-4.62 16.06 32.12 9.24 4.62-16.06c8.4 2.51 19.16 14 16.3 23.95l-62.11 216c-2.87 10-18.08 14-26.53 11.63l4.62-16.06-32.12-9.24-4.62 16.06L605 638.59l4.62-16.06-20.3-5.84v198.82h333.89V198.28z" fill="#FFFFFF" p-id="8011"></path><path d="M605.167 516.892l9.234-32.119 32.12 9.234-9.235 32.12zM765.58 549.94l-72.7-75.93-29.23 101.65 101.93-25.72zM623.661 452.711l9.235-32.119 32.118 9.234-9.234 32.12z" fill="#FFFFFF" p-id="8012"></path></svg>