<?xml version="1.0" standalone="no"?><!DOCTYPE svg PUBLIC "-//W3C//DTD SVG 1.1//EN" "http://www.w3.org/Graphics/SVG/1.1/DTD/svg11.dtd"><svg t="1546862063582" class="icon" style="" viewBox="0 0 1024 1024" version="1.1" xmlns="http://www.w3.org/2000/svg" p-id="8245" xmlns:xlink="http://www.w3.org/1999/xlink" width="200" height="200"><defs><style type="text/css"></style></defs><path d="M537.58 73H595v91.15c108.26 0.61 216.63-1.12 324.79 0.5 23.29-2.23 41.53 15.9 39.2 39.2 1.72 189.19-0.41 378.48 1 567.78-1 20.45 2 43.14-9.72 61.27-14.79 10.73-34 9.32-51.34 10.13-101.28-0.5-202.56-0.31-303.94-0.31V944H532c-154.34-28.16-309-53.88-463.45-81q-0.15-354.43 0-708.75C224.83 127.19 381.1 99.64 537.58 73z" fill="#477DA7" p-id="8246"></path><path d="M115 547V423h35.69L171 507.58 191.09 423H225v124h-21v-97.61L181.77 547h-23.62L136 449.39V547zM248 547V423h37.08q21.08 0 27.48 1.86Q322.4 427.64 329 437t6.67 24q0 11.38-3.82 19.13a33.25 33.25 0 0 1-9.72 12.19 32.21 32.21 0 0 1-12 5.86q-8.28 1.78-24 1.78H271v47z m23-103v35h12.62q13.63 0 18.22-1.93A15.39 15.39 0 0 0 309 471a17.58 17.58 0 0 0 2.61-9.59 16.69 16.69 0 0 0-3.61-11.09 15.63 15.63 0 0 0-9.26-5.47q-4.14-0.84-16.58-0.85zM409 502v-21h49v49.3q-7.15 7.61-20.73 13.39a69.74 69.74 0 0 1-27.5 5.78q-17.7 0-30.85-8.14A50.25 50.25 0 0 1 359.16 518a81.52 81.52 0 0 1-6.62-33q0-19.33 7.39-34.36a52.26 52.26 0 0 1 21.62-23.05q10.83-6.16 27-6.16 21 0 32.81 9.66t15.19 26.72l-22.62 4.65a26.41 26.41 0 0 0-9-14.4q-6.58-5.27-16.43-5.27-14.92 0-23.73 10.38T376 484q0 22 8.92 33.05t23.39 11a36.16 36.16 0 0 0 14.35-3.05 48.23 48.23 0 0 0 12.34-7.45V502z" fill="#FFFFFF" p-id="8247"></path><path d="M807.685 501.134l9.243-32.148 32.147 9.243-9.242 32.148zM770.734 629.735l9.242-32.147 32.148 9.242-9.242 32.148zM620.57 586.63l9.24-32.14-32.15-9.25-6.66 23.17v9.72l29.57 8.5zM789.246 565.471l9.242-32.147 32.148 9.242-9.243 32.148z" fill="#FFFFFF" p-id="8248"></path><path d="M591 194v293.67l29.39-102.31c2.87-10 18.09-14 26.53-11.65l-4.62 16.08 32.13 9.21 4.62-16L829 426.1l-4.62 16.08 32.13 9.25 4.62-16.08c8.4 2.52 19.17 14 16.3 24l-62.15 216.26c-2.87 10-18.09 14-26.54 11.65l4.62-16.08-32.13-9.25-4.61 16.07-149.93-43.14 4.62-16.08-20.31-5.84V812h334V194z" fill="#FFFFFF" p-id="8249"></path><path d="M607.05 513.056l9.242-32.148 32.148 9.243-9.242 32.148zM767.61 546.13l-72.77-76-29.25 101.74 102.02-25.74zM625.56 448.809l9.242-32.148 32.148 9.243-9.243 32.148z" fill="#FFFFFF" p-id="8250"></path></svg>