<?xml version="1.0" standalone="no"?><!DOCTYPE svg PUBLIC "-//W3C//DTD SVG 1.1//EN" "http://www.w3.org/Graphics/SVG/1.1/DTD/svg11.dtd"><svg t="1546869146011" class="icon" style="" viewBox="0 0 1024 1024" version="1.1" xmlns="http://www.w3.org/2000/svg" p-id="3854" xmlns:xlink="http://www.w3.org/1999/xlink" width="200" height="200"><defs><style type="text/css"></style></defs><path d="M620.9 67.2H236.5c-30.3 0-54.9 25-54.9 55.9v782.7c0 30.9 24.6 55.9 54.9 55.9h549c30.3 0 54.9-25 54.9-55.9v-615L620.9 67.2z" fill="#AC85D4" p-id="3855"></path><path d="M802 925.9H220.1V109.7h379.6v218.9H802z" fill="#FFFFFF" p-id="3856"></path><path d="M802 922.6H220.1V106.4h379.6v218.8H802z" fill="#B793E5" p-id="3857"></path><path d="M314.5 650.4l51.4 118.1h0.6l51.2-118.1h26.6v147.4h-22.5V692.5h-0.8l-45.2 105.3h-19.4l-45.2-105.3h-0.8v105.3h-22.5V650.4h26.6zM534.3 650.4c35.1 0 52.6 14.9 52.6 44.8 0 30.1-17.8 45.2-53 45.2h-38.2v57.4h-22.5V650.4h61.1z m-38.6 70.8h36.7c11.1 0 19.2-2.1 24.4-6.2 5-4.1 7.6-10.7 7.6-19.8 0-9.1-2.7-15.7-7.8-19.4-5.2-4.1-13.2-6.2-24.2-6.2h-36.7v51.6zM668.9 650.4c35.1 0 52.6 14.9 52.6 44.8 0 30.1-17.8 45.2-53.1 45.2h-38.2v57.4h-22.5V650.4h61.2z m-38.6 70.8H667c11.1 0 19.2-2.1 24.4-6.2 5-4.1 7.6-10.7 7.6-19.8 0-9.1-2.7-15.7-7.8-19.4-5.2-4.1-13.2-6.2-24.2-6.2h-36.7v51.6z" fill="#FFFFFF" p-id="3858"></path></svg>