<?xml version="1.0" standalone="no"?><!DOCTYPE svg PUBLIC "-//W3C//DTD SVG 1.1//EN" "http://www.w3.org/Graphics/SVG/1.1/DTD/svg11.dtd"><svg t="1546862057585" class="icon" style="" viewBox="0 0 1024 1024" version="1.1" xmlns="http://www.w3.org/2000/svg" p-id="8126" xmlns:xlink="http://www.w3.org/1999/xlink" width="200" height="200"><defs><style type="text/css"></style></defs><path d="M535.32 78.33h57.4v91.12c108.22 0.61 216.55-1.12 324.67 0.5 23.28-2.22 41.51 15.9 39.18 39.18 1.72 189.12-0.41 378.34 1 567.56-1 20.45 2 43.13-9.72 61.25-14.78 10.73-34 9.31-51.32 10.12-101.24-0.5-202.48-0.31-303.82-0.31V949h-63c-154.28-28.15-308.88-53.86-463.28-81q-0.15-354.29 0-708.48C222.68 132.49 378.9 105 535.32 78.33z" fill="#D9A300" p-id="8127"></path><path d="M113.34 552.67V428.94h37.12q21.1 0 27.51 1.86 9.85 2.77 16.48 12.11t6.63 24.09q0 11.39-3.83 19.16a33.28 33.28 0 0 1-9.73 12.2 32.54 32.54 0 0 1-12 5.86q-8.29 1.76-24 1.77h-15.06v46.68z m23.13-102.8V485h12.67q13.67 0 18.28-1.94a15.44 15.44 0 0 0 7.23-6.08 17.62 17.62 0 0 0 2.62-9.62 16.76 16.76 0 0 0-3.68-11.14 15.68 15.68 0 0 0-9.29-5.49q-4.15-0.83-16.64-0.84zM214.21 512.41l22.5-2.36q2 12.23 8.24 18t16.76 5.74q11.18 0 16.84-5.11t5.67-11.94a11.83 11.83 0 0 0-2.38-7.46q-2.37-3.08-8.31-5.36-4.06-1.53-18.52-5.41-18.6-5-26.1-12.24a33.34 33.34 0 0 1-10.55-24.9 33.74 33.74 0 0 1 5-17.69 31.77 31.77 0 0 1 14.3-12.53q9.34-4.32 22.54-4.31 21.56 0 32.47 10.21t11.45 27.27l-23.14 1.1q-1.48-9.54-6.37-13.71t-14.64-4.18q-10.08 0-15.79 4.47a9.28 9.28 0 0 0-3.67 7.68 9.79 9.79 0 0 0 3.44 7.51q4.37 4 21.25 8.28t25 8.9a33.39 33.39 0 0 1 12.66 12.58q4.57 8 4.58 19.71a38.55 38.55 0 0 1-5.48 19.91 33.39 33.39 0 0 1-15.46 13.8q-10 4.52-24.92 4.52-21.73 0-33.37-10.85t-14-31.63zM326.72 428.94H369q14.3 0 21.8 2.36a38 38 0 0 1 17.26 11.39A54.93 54.93 0 0 1 419 462.74q3.75 11.86 3.76 29.25 0 15.28-3.52 26.34-4.3 13.5-12.27 21.85-6 6.33-16.24 9.88-7.67 2.62-20.48 2.62h-43.53z m23.14 20.93v82h17.26q9.68 0 14-1.18a20.85 20.85 0 0 0 9.33-5.15q3.71-3.63 6.05-11.94t2.35-22.66q0-14.34-2.35-22t-6.55-12a21.5 21.5 0 0 0-10.73-5.94q-4.85-1.17-19-1.18z" fill="#FFFFFF" p-id="8128"></path><path d="M707.15 513c-0.06 0-0.05 0 0 0zM716.69 499.31v0.06zM678.91 639.11h-0.06zM780.32 545.68a14 14 0 0 0 1.67-1.38 20.87 20.87 0 0 1-2.05 1.63c0.17-0.06 0.22-0.18 0.38-0.25zM694.68 677.44l0.93-2.26M697.97 669.44l0.94-2.26M690.17 688.36l3.91-9.48" fill="" p-id="8129"></path><path d="M589.75 199.82v418.06c29.7-189.73 240.69-234.35 278.6-221 15.22 11.27-36.64 103.73-36.64 103.73l-58.34 6.48 49.89 7.33-19.73 26.78-64.83 6.2 50.74 7.89s-26.37 26.62-32.71 27.06-48.62 5.92-48.62 5.92 28.61 4.79 32.84 5.64c-57.5 44.38-128.55 52.15-128.55 52.15L718.39 495s-68 10.08-128.64 127.13v195.26h334.1V199.82z" fill="#FFFFFF" p-id="8130"></path><path d="M588.71 624.09c0.34-0.67 0.69-1.29 1-2v-4.25c-0.29 2.16-0.71 4.16-1 6.25z" fill="#34C6E8" p-id="8131"></path></svg>