<?xml version="1.0" standalone="no"?><!DOCTYPE svg PUBLIC "-//W3C//DTD SVG 1.1//EN" "http://www.w3.org/Graphics/SVG/1.1/DTD/svg11.dtd"><svg t="1546862016187" class="icon" style="" viewBox="0 0 1024 1024" version="1.1" xmlns="http://www.w3.org/2000/svg" p-id="7418" xmlns:xlink="http://www.w3.org/1999/xlink" width="200" height="200"><defs><style type="text/css"></style></defs><path d="M535.06 75.11h57.64v91.5c108.67 0.61 217.45-1.12 326 0.51 23.38-2.23 41.69 16 39.35 39.34 1.73 189.91-0.41 379.91 1 569.92-1 20.53 2 43.3-9.76 61.5-14.84 10.77-34.15 9.35-51.54 10.17-101.66-0.51-203.32-0.31-305.08-0.31V949.4h-63.21c-154.93-28.27-310.17-54.09-465.2-81.33q-0.15-355.77 0-711.43C221.13 129.5 378 101.85 535.06 75.11z" fill="#A33639" p-id="7419"></path><path d="M105.45 511l22.6-2.38q2 12.3 8.27 18.06t16.83 5.77q11.22 0 16.91-5.13t5.69-12a11.92 11.92 0 0 0-2.39-7.51q-2.39-3.08-8.35-5.38-4.08-1.52-18.59-5.42-18.67-5-26.2-12.29a34.53 34.53 0 0 1-5.63-42.72 31.81 31.81 0 0 1 14.36-12.59q9.37-4.32 22.64-4.32 21.65 0 32.6 10.26t11.5 27.37l-23.23 1.1q-1.46-9.6-6.41-13.82t-14.71-4.2q-10.13 0-15.85 4.5a9.28 9.28 0 0 0-3.69 7.71 9.84 9.84 0 0 0 3.45 7.55q4.39 4 21.34 8.3t25.07 8.95a33.39 33.39 0 0 1 12.71 12.63q4.59 8 4.59 19.79a38.72 38.72 0 0 1-5.5 20 33.57 33.57 0 0 1-15.53 13.86q-10 4.54-25 4.54-21.82 0-33.5-10.89T105.45 511zM234.82 551.44l-27.46-124.26h23.77l17.34 85.35 21-85.35h27.61l20.2 86.82 17.65-86.79h23.38l-27.93 124.23h-24.63l-22.91-92.9-22.84 92.9zM370.32 551.44V427.18h78.85v21h-55.63v29.42h48v21h-48v52.81zM589.31 197.11v620.13h335.48V197.11zM826 446.15a11 11 0 1 1 11 11 11 11 0 0 1-11-11zM651.32 551.57a28.78 28.78 0 1 1 28.77-28.79 28.8 28.8 0 0 1-28.77 28.79z m32.33 73.15a24.41 24.41 0 1 1 24.35-24.4 24.43 24.43 0 0 1-24.35 24.4z m0-147a32.64 32.64 0 1 1 32.63-32.64 32.68 32.68 0 0 1-32.63 32.66z m76.06 175A21.32 21.32 0 1 1 781 631.37a21.34 21.34 0 0 1-21.29 21.32z m0-203.33a35.73 35.73 0 1 1 35.72-35.73 35.77 35.77 0 0 1-35.72 35.7z m77.22 167.29a17.21 17.21 0 1 1 17.21-17.21 17.23 17.23 0 0 1-17.21 17.19zM868.55 537a14.12 14.12 0 1 1 14.12-14.12A14.14 14.14 0 0 1 868.55 537z" fill="#FFFFFF" p-id="7420"></path><path d="M825.98 446.15v0.01-0.01z" fill="" p-id="7421"></path></svg>