<?xml version="1.0" standalone="no"?><!DOCTYPE svg PUBLIC "-//W3C//DTD SVG 1.1//EN" "http://www.w3.org/Graphics/SVG/1.1/DTD/svg11.dtd"><svg t="1546869179461" class="icon" style="" viewBox="0 0 1024 1024" version="1.1" xmlns="http://www.w3.org/2000/svg" p-id="4034" xmlns:xlink="http://www.w3.org/1999/xlink" width="200" height="200"><defs><style type="text/css"></style></defs><path d="M594.528 90.5h21.273l206.727 242-5 14.448h-178L608.649 332.5l-26.121-41z" fill="#FFFFFF" p-id="4035"></path><path d="M822.783 342.087c-2.251-6.11-5.468-11.552-9.46-16.233L624.914 104.908c-4.879-5.722-11.021-10.07-18.298-13.428S591.709 87 584.188 87H226.382c-13.705 0-27.325 4.781-37.782 15.238-10.457 10.456-15.6 23.715-15.6 37.42v728.317c0 13.705 5.143 27.647 15.6 38.104C199.057 916.535 212.676 922 226.382 922h546.237c13.705 0 27.325-5.465 37.781-15.922 10.457-10.457 15.6-24.398 15.6-38.104v-507.37c0-6.152-0.966-12.408-3.217-18.517z m-19.179-8.342c-0.103-0.278-0.266-0.745-0.373-0.745H647.354c-12.514 0-23.757-2.002-33.304-11.55-9.548-9.548-13.05-19.289-13.05-31.803V103.739c0 0.556 3.417 0.983 5.035 1.73 6.644 3.067 12.324 7.229 16.78 12.454l172.082 201.586c3.463 4.06 6.295 8.492 8.335 13.492h0.637c-0.113-0.001-0.146 1.067-0.265 0.744z" fill="#E1F2FF" p-id="4036"></path><path d="M907.098 573.37C896.641 562.913 882.719 558 869.014 558H837V360.605c0-1.402 0.067-2.808 0.176-4.22 0.403-5.172-0.225-12.253-3.259-20.48-2.38-6.459-4.509-13.775-10.209-20.454l-187.5-220.968c-6.6-7.745-14.064-11.176-20.774-14.199l-2.482-1.161c-7.494-3.462-14.561-3.907-19.911-3.907-1.621 0-3.225 0.35-4.862 0.397-1.328 0.042-2.644 0.386-3.989 0.386H226.381c-22.681 0-40.353 5.654-52.114 17.411C163.53 104.158 151 118.854 151 139.658v728.317c0 17.514 9.257 37.91 23.272 51.936C188.293 933.921 208.867 943 226.381 943h546.237c20.804 0 35.862-12.352 46.614-23.094C830.984 908.149 837 890.661 837 867.974V793h32.014c13.705 0 27.627-5.228 38.084-15.685S923 753.153 923 739.448V610.922c0-13.706-5.445-27.096-15.902-37.552zM609.603 115.584L796.546 333H641.033c-9.387 0-20.364-5.067-27.78-12.488C605.884 313.149 601 301.99 601 292.508v-182.33c11 2.003 6.939 3.459 8.603 5.406zM805 867.974c0 9.523-1.563 22.412-8.424 29.274C787 906.824 779.747 911 772.619 911H226.381c-8.849 0-21.17-5.965-28.952-13.747-7.787-7.787-13.43-20.43-13.43-29.279V139.658c0-7.128 3.854-14.019 13.425-23.59 6.867-6.867 19.434-8.068 28.957-8.068H569v184.508c0 18.111 8.113 37.185 21.595 50.662C604.13 356.704 623.022 365 641.033 365H805v193H429.882c-13.705 0-27.575 4.913-38.032 15.37-10.457 10.456-15.85 23.846-15.85 37.552v128.526c0 13.705 5.393 27.41 15.85 37.867C402.307 787.772 416.176 793 429.882 793H805v74.974z" fill="#2D84D3" p-id="4037"></path><path d="M540.542 635.615h-33.936v-19.047h92.044v19.047h-35.38v87.713h-22.729l0.001-87.713zM634.024 635.615h-33.936v-19.047h92.044v19.047h-35.379v87.713h-22.729v-87.713zM788.809 660.268v19.047H725.1v44.014h-22.572v-55.697c0.11-16.014 1.606-26.525 4.482-31.535 3.629-7.05 8.885-12.06 15.768-15.051 6.882-2.981 16.568-4.477 29.051-4.477h36.98v19.047h-34.098c-10.564 0.209-17.342 1.067-20.328 2.563-5.978 2.458-9.068 7.897-9.283 16.327v5.763l63.709-0.001z" fill="#FFFFFF" p-id="4038"></path><path d="M420.159 371.135h-82.371v-14.501h26.684V204.349h-46.36l-5.185 5.691v33.408h-18.643v-53.621h169.379v53.621H445.02V210.04l-5.185-5.691h-46.36v152.285h26.684v14.501z" fill="#2D84D3" p-id="4039"></path></svg>