<?xml version="1.0" standalone="no"?><!DOCTYPE svg PUBLIC "-//W3C//DTD SVG 1.1//EN" "http://www.w3.org/Graphics/SVG/1.1/DTD/svg11.dtd"><svg t="1546862028690" class="icon" style="" viewBox="0 0 1024 1024" version="1.1" xmlns="http://www.w3.org/2000/svg" p-id="7654" xmlns:xlink="http://www.w3.org/1999/xlink" width="200" height="200"><defs><style type="text/css"></style></defs><path d="M535.94 71.69h57.58v91.4c108.56 0.61 217.22-1.12 325.68 0.51 23.36-2.23 41.64 15.95 39.3 39.3 1.73 189.71-0.41 379.52 1 569.33-1 20.51 2 43.26-9.75 61.44-14.83 10.76-34.12 9.34-51.48 10.16-101.56-0.51-203.11-0.31-304.77-0.31v101.55h-63.15C375.59 916.83 220.5 891 65.63 863.82q-0.15-355.4 0-710.69C222.34 126 379 98.39 535.94 71.69z" fill="#868695" p-id="7655"></path><path d="M138.52 547.51V444.39h-34.1v-21h91.31v21h-34v103.12zM199 547.51l39.27-64.77-35.58-59.35h27.12l23 39.88 22.57-39.88h26.89l-35.74 60.28 39.27 63.84h-28l-25.4-42.92-25.55 42.92zM343.63 547.51V444.39h-34.1v-21h91.31v21h-34v103.12zM590.14 193.55v302.14h126.94v12.69H590.14v88.86h265.74v38.08H590.14v48.24h265.74v38.08H590.14V813h335.14V193.55z m198.11 250c-4.53 6.7-10.62 17.86-12.12 31.13a8.11 8.11 0 0 1-5.17 6.88l-43.83 15.86-4.93-2.57 20.22-27.09a15.45 15.45 0 0 0 5 0.79c7.84-0.08 14.14-5.95 14.07-13.09s-6.49-12.89-14.33-12.81-14.14 5.94-14.06 13.09a11.89 11.89 0 0 0 1 4.63 8.05 8.05 0 0 1-0.55 8.14l-17.15 23-4.09-3.82-0.13-42.48a8.25 8.25 0 0 1 4.66-7.51c6.93-3.32 20.19-10.74 30.28-22.81a8.22 8.22 0 0 1 10.81-1.46l28 18.43a8.35 8.35 0 0 1 2.32 11.72z m19.94-14.67a8.35 8.35 0 0 1-11 2l-42.74-26.63a8.35 8.35 0 0 1-2.52-11.73l0.32-0.47c2.53-3.77 4.47-1.64 8.3 0.8L802.93 420c4.13 2.61 8.25 5 5.25 8.91z m36.18-53.69l-24.11 35.7a13 13 0 0 1-18 3.48l-28.55-19.27a13 13 0 0 1-3.48-18l24.11-35.69a12.94 12.94 0 0 1 18-3.48l28.56 19.29a13 13 0 0 1 3.46 18z" fill="#FFFFFF" p-id="7656"></path></svg>