<?xml version="1.0" standalone="no"?><!DOCTYPE svg PUBLIC "-//W3C//DTD SVG 1.1//EN" "http://www.w3.org/Graphics/SVG/1.1/DTD/svg11.dtd"><svg t="1546862022660" class="icon" style="" viewBox="0 0 1024 1024" version="1.1" xmlns="http://www.w3.org/2000/svg" p-id="7535" xmlns:xlink="http://www.w3.org/1999/xlink" width="200" height="200"><defs><style type="text/css"></style></defs><path d="M534.84 73.7h57.61v91.45c108.62 0.61 217.34-1.12 325.86 0.51 23.37-2.23 41.67 16 39.33 39.33 1.73 189.81-0.41 379.73 1 569.65-1 20.52 2 43.28-9.75 61.47-14.84 10.77-34.14 9.35-51.51 10.16-101.61-0.51-203.22-0.31-304.94-0.31v101.61h-63.2c-154.85-28.25-310-54.06-465-81.29q-0.15-355.59 0-711.08c156.82-27.13 313.61-54.77 470.6-81.5z" fill="#733781" p-id="7536"></path><path d="M127.64 549.79L100.19 425.6h23.76l17.34 85.31 21-85.31h27.6L210 512.35l17.64-86.75h23.37L223.1 549.8h-24.57l-22.9-92.85-22.83 92.84zM357.71 549.79h-25.25l-10-28.21h-46L267 549.79h-24.64l44.78-124.2h24.54zM315 500.66l-15.84-46.08-15.53 46.08zM387.43 549.79L346.34 425.6h25.17l29.09 91.93 28.15-91.93h24.63l-41.17 124.2z" fill="#FFFFFF" p-id="7537"></path><path d="M687.57 546a39.44 39.44 0 1 0-39.44-39.44A39.44 39.44 0 0 0 687.57 546z m0-69.5a30.07 30.07 0 1 1-30.07 30.07 30.1 30.1 0 0 1 30.07-30.12z" fill="#FFFFFF" p-id="7538"></path><path d="M687.57 528a21.48 21.48 0 1 0-21.48-21.48A21.5 21.5 0 0 0 687.57 528zM695.7 458.83L707.08 409s-19-6-30.89 0l8.13 49.86z" fill="#FFFFFF" p-id="7539"></path><path d="M589.07 195.64v223a131.8 131.8 0 0 1 98.5-44.32c64.72 0 118.7 46.76 130 108.26l-12.84 2.08c-10.31-55.32-58.91-97.34-117.17-97.34a119.17 119.17 0 0 0-98.5 52.16v27.43a106.18 106.18 0 0 1 202.85 19.82l-58.28 9.45v98.92a39 39 0 0 0-7.73 1.12c-9.71 2.43-17.36 8.11-21.63 15.19a107.28 107.28 0 0 1-16.72 1.32 106.19 106.19 0 0 1-98.5-66.59v27.43A118.91 118.91 0 0 0 700.59 625a23.26 23.26 0 0 0 0.58 4.72 20.37 20.37 0 0 0 3.28 7.89 131.21 131.21 0 0 1-115.38-43.21v221h335.32V195.64z m242 408.68c0 9.49-7.08 17.07-18.12 19.86-12.12 3-23.82-2.07-26.15-11.36s5.61-19.29 17.73-22.32a27.05 27.05 0 0 1 15.38 0.51v-69.07l-62 11.33-0.29 85.93c-0.06 8.13-7.39 16.13-17.95 18.73-12 3-24.52-2.68-25.87-11.21-2.3-9.2 5.55-19.08 17.55-22.09a26.53 26.53 0 0 1 15.11 0.48V503.4l84.59-13.72z" fill="#FFFFFF" p-id="7540"></path></svg>