<?xml version="1.0" standalone="no"?><!DOCTYPE svg PUBLIC "-//W3C//DTD SVG 1.1//EN" "http://www.w3.org/Graphics/SVG/1.1/DTD/svg11.dtd"><svg t="1546867807737" class="icon" style="" viewBox="0 0 1024 1024" version="1.1" xmlns="http://www.w3.org/2000/svg" p-id="18142" xmlns:xlink="http://www.w3.org/1999/xlink" width="200" height="200"><defs><style type="text/css"></style></defs><path d="M910.2336 1024H113.7664C51.2 1024 0 972.8 0 910.2336V113.7664C0 51.2 51.2 0 113.7664 0h796.4672C972.8 0 1024 51.2 1024 113.7664v796.4672C1024 972.8 972.8 1024 910.2336 1024z m-152.2688-210.816L567.04 509.4656l188.2368-298.6752h-89.088l-124.416 206.5152a494.336 494.336 0 0 0-22.9376 44.7232h-1.5616a415.5392 415.5392 0 0 0-20.992-42.7776l-119.0144-208.4608h-95.2576l184.32 299.8528-200.2688 302.5408h94.8736l138.4448-226.304c8.832-18.944 13.4912-29.44 14.0032-31.488h1.9456c5.9904 15.5136 10.496 25.9072 13.6192 31.0784l134.5536 226.7136h94.4896z" fill="#039E55" p-id="18143"></path></svg>