<?xml version="1.0" standalone="no"?><!DOCTYPE svg PUBLIC "-//W3C//DTD SVG 1.1//EN" "http://www.w3.org/Graphics/SVG/1.1/DTD/svg11.dtd"><svg t="1546867722716" class="icon" style="" viewBox="0 0 1024 1024" version="1.1" xmlns="http://www.w3.org/2000/svg" p-id="16398" xmlns:xlink="http://www.w3.org/1999/xlink" width="200" height="200"><defs><style type="text/css"></style></defs><path d="M605.32079 142.690499h383.879586v726.336782H605.32079z" fill="#FFFFFF" p-id="16399"></path><path d="M1022.795861 153.888993A40.699906 40.699906 0 0 0 977.761054 108.372531c-124.146754-1.926623-248.654751 0-373.283161 0V0h-65.746002C359.074318 31.30762 179.537159 63.698965 0 95.488241v833.264346c177.490122 31.90969 355.100659 62.133584 532.349953 94.765757h72.248354v-118.607714h349.200376c19.988711-0.963311 42.024459 0.722484 59.002822-12.041392 13.486359-21.313264 9.994356-48.165569 11.198495-72.248354-1.685795-221.802446 0.842897-444.327375-1.204139-666.731891z m-34.197554 715.258702H604.718721V142.931326H988.598307z" fill="#733781" p-id="16400"></path><path d="M763.063029 201.091251v13.365946L686.35936 289.715898h81.761054v14.449671h-111.021637v-13.245531L734.524929 215.540922h-72.248353v-14.449671zM807.375353 201.091251v103.074318h-22.035748V201.091251zM889.136406 201.091251c32.270931 0 48.165569 10.476011 48.16557 31.548448S921.407338 264.91063 888.775165 264.91063h-33.234243v39.616181h-21.915334V201.091251z m-33.595484 49.008467h31.909689a44.793979 44.793979 0 0 0 21.313265-3.97366 14.570085 14.570085 0 0 0 6.381938-13.486359 14.208843 14.208843 0 0 0-6.984008-13.125118 42.144873 42.144873 0 0 0-21.19285-3.973659h-31.428034z" fill="#733781" p-id="16401"></path><path d="M375.330198 434.694262L240.827846 586.054563h139.439322v57.557855H149.915334v-54.547507L286.585136 433.490122H159.428034v-56.353716h215.902164z" fill="#FFFFFF" p-id="16402"></path><path d="M674.317968 662.276576h246.848542v147.747883H674.317968zM921.888993 361.241769H674.317968v248.052681h248.052681V361.241769z m-148.109125 24.082784h24.082785v24.082785h-24.082785z m48.165569 168.579492h-48.165569v-64.301035h48.165569z m0-120.413923h-24.082784v24.082785h24.082784v24.082784h-24.082784v-24.082784h-24.082785v-24.082785h24.082785v-24.082784h24.082784z" fill="#733781" p-id="16403"></path></svg>