<?xml version="1.0" standalone="no"?><!DOCTYPE svg PUBLIC "-//W3C//DTD SVG 1.1//EN" "http://www.w3.org/Graphics/SVG/1.1/DTD/svg11.dtd"><svg t="1543894664972" class="icon" style="" viewBox="0 0 1024 1024" version="1.1" xmlns="http://www.w3.org/2000/svg" p-id="1897" xmlns:xlink="http://www.w3.org/1999/xlink" width="64" height="64"><defs><style type="text/css"></style></defs><path d="M512 0C226.742857 0 0 226.742857 0 512s226.742857 512 512 512 512-226.742857 512-512-226.742857-512-512-512z m0 950.857143c-241.371429 0-438.857143-197.485714-438.857143-438.857143s197.485714-438.857143 438.857143-438.857143 438.857143 197.485714 438.857143 438.857143-197.485714 438.857143-438.857143 438.857143z" fill="#F34336" p-id="1898"></path><path d="M512 629.028571c-21.942857 0-36.571429-14.628571-36.571429-36.571428V277.942857c0-21.942857 14.628571-36.571429 36.571429-36.571428s36.571429 14.628571 36.571429 36.571428V585.142857c0 29.257143-14.628571 43.885714-36.571429 43.885714z" fill="#F34336" p-id="1899"></path><path d="M512 738.742857m-43.885714 0a43.885714 43.885714 0 1 0 87.771428 0 43.885714 43.885714 0 1 0-87.771428 0Z" fill="#F34336" p-id="1900"></path></svg>